<svg xmlns="http://www.w3.org/2000/svg" width="640" height="200" viewBox="0 0 640 200" fill="none">
  <rect x="6" y="6" width="628" height="188" rx="40" fill="#FFFFFF" stroke="#E6E8EF" stroke-width="8"/>

  <g transform="translate(52 46)">
    <rect x="0" y="20" width="118" height="92" rx="10" fill="#FFD79A" stroke="#0C2D5B" stroke-width="8"/>
    <path d="M0 20L32 0H150L118 20H0Z" fill="#FFF1D8" stroke="#0C2D5B" stroke-width="8" stroke-linejoin="round"/>
    <path d="M118 20L150 0V72L118 80V20Z" fill="#F2C57E" stroke="#0C2D5B" stroke-width="8" stroke-linejoin="round"/>
    <path d="M60 1H75V46L67 40L60 46V1Z" fill="#B98FA2" opacity="0.9"/>
    <path d="M25 86V68M25 68L17 75M25 68L33 75" stroke="#BE9A61" stroke-width="7" stroke-linecap="round" stroke-linejoin="round"/>

    <g transform="translate(48 54)">
      <rect x="0" y="0" width="126" height="72" rx="12" fill="#74DA7B" stroke="#0C2D5B" stroke-width="8"/>
      <rect x="10" y="10" width="106" height="52" rx="10" fill="#D8F6D9"/>
      <circle cx="63" cy="36" r="20" fill="#1CA63A"/>
      <circle cx="20" cy="36" r="3.2" fill="#9EDBA3"/>
      <circle cx="106" cy="36" r="3.2" fill="#9EDBA3"/>
      <circle cx="63" cy="14" r="3.2" fill="#9EDBA3"/>
      <circle cx="63" cy="58" r="3.2" fill="#9EDBA3"/>
    </g>
  </g>

  <line x1="292" y1="52" x2="292" y2="148" stroke="#E2E5EC" stroke-width="8" stroke-linecap="round"/>

  <g fill="#032A62">
    <path d="M381.674 143.516C363.93 143.516 349.494 129.316 349.494 100.36C349.494 71.404 364.166 57.204 381.674 57.204C396.346 57.204 407.694 65.724 413.374 77.072L394.92 86.776C392.08 80.15 387.11 76.6 381.674 76.6C371.97 76.6 365.584 85.594 365.584 100.36C365.584 115.126 371.97 124.12 381.674 124.12C387.11 124.12 392.08 120.57 394.92 113.944L413.374 123.648C407.694 134.996 396.346 143.516 381.674 143.516Z"/>
    <path d="M483.002 143.516C461.472 143.516 446.09 128.132 446.09 100.36C446.09 72.588 461.472 57.204 483.002 57.204C504.532 57.204 519.914 72.588 519.914 100.36C519.914 128.132 504.532 143.516 483.002 143.516ZM483.002 123.884C493.184 123.884 503.35 116.074 503.35 100.36C503.35 84.646 493.184 76.836 483.002 76.836C472.702 76.836 462.654 84.646 462.654 100.36C462.654 116.074 472.702 123.884 483.002 123.884Z"/>
    <path d="M555.968 141.386V59.334H590.048C615.608 59.334 631.108 74.952 631.108 100.36C631.108 125.65 615.608 141.386 590.166 141.386H555.968ZM571.94 121.99H590.048C606.14 121.99 614.544 110.996 614.544 100.36C614.544 89.37 606.848 78.73 590.048 78.73H571.94V121.99Z"/>
  </g>
</svg>
